<?xml version="1.0" standalone="no"?>
<!DOCTYPE svg PUBLIC "-//W3C//DTD SVG 20010904//EN"
 "http://www.w3.org/TR/2001/REC-SVG-20010904/DTD/svg10.dtd">
<svg version="1.0" xmlns="http://www.w3.org/2000/svg"
 width="700.000000pt" height="700.000000pt" viewBox="0 0 700.000000 700.000000"
 preserveAspectRatio="xMidYMid meet">
<metadata>
Created by potrace 1.11, written by Peter Selinger 2001-2013
</metadata>
<g transform="translate(0.000000,700.000000) scale(0.100000,-0.100000)"
fill="#000000" stroke="none">
<path d="M1006 6908 c-59 -8 -197 -43 -225 -58 -9 -5 -32 -15 -51 -24 -70 -30
-194 -118 -260 -186 -136 -138 -217 -295 -256 -490 -20 -105 -11 -308 18 -410
95 -327 348 -575 673 -659 119 -31 312 -34 425 -6 90 21 206 67 275 109 195
117 344 301 409 507 l22 66 274 -3 c151 -1 278 -3 282 -3 4 -1 12 -20 19 -43
31 -117 121 -267 220 -368 107 -109 206 -175 339 -224 41 -15 81 -31 89 -35
11 -5 13 -66 12 -336 -1 -180 -4 -332 -7 -336 -2 -4 -28 -15 -57 -25 -378
-125 -637 -482 -637 -877 0 -266 98 -497 287 -678 102 -98 222 -171 348 -213
l50 -16 -1 -233 c-1 -127 -3 -282 -3 -343 l-1 -111 -42 -12 c-176 -52 -377
-206 -486 -374 -180 -276 -202 -636 -56 -927 256 -511 910 -673 1377 -342 151
106 303 318 347 481 l10 39 248 -3 c136 -2 264 -4 284 -4 33 -1 38 -4 48 -38
96 -301 349 -540 654 -619 89 -23 130 -27 251 -27 395 1 750 267 874 654 28
87 39 167 39 274 0 376 -217 706 -563 857 -193 85 -451 97 -649 32 -178 -59
-343 -174 -452 -316 -56 -72 -126 -204 -150 -280 -11 -38 -23 -58 -33 -58 -9
-1 -106 0 -216 1 -110 1 -228 1 -262 1 -67 0 -76 6 -87 53 -12 49 -86 195
-129 255 -115 157 -297 289 -477 345 l-55 17 2 77 c1 42 2 193 2 337 l1 260
58 18 c126 39 246 112 356 216 248 236 337 562 253 926 -14 60 -74 188 -122
259 -106 159 -267 288 -441 354 l-90 35 2 285 c2 157 3 311 4 341 l0 55 53 19
c135 48 252 121 353 222 105 106 191 243 229 369 l12 40 286 2 286 2 17 -52
c74 -227 269 -445 485 -545 391 -179 839 -78 1119 253 37 44 106 154 125 200
25 60 55 146 60 175 3 14 9 48 14 75 10 51 8 259 -3 305 -3 14 -8 39 -12 55
-17 90 -90 245 -156 334 -306 409 -872 498 -1293 203 -65 -46 -182 -166 -223
-228 -17 -27 -35 -53 -39 -59 -13 -16 -65 -135 -83 -190 l-17 -50 -278 0 -278
1 -27 75 c-134 372 -466 613 -857 624 -421 11 -790 -258 -917 -667 -5 -17 -28
-18 -289 -18 l-284 0 -23 63 c-63 176 -173 327 -314 432 -123 91 -232 142
-370 171 -83 18 -236 24 -320 12z"/>
</g>
</svg>
